# xmcd
#
# Track frame offsets: 
#        150
#        21390
#        39662
#        53076
#        70287
#        87699
#        105901
#        121640
#        144099
#        172250
#        189343
#        210407
#        229149
#
# Disc length: 3350 seconds
#
# Revision: 1
# Processed by: cddbd v1.5.2PL0 Copyright (c) Steve Scherf et al.
# Submitted via: ExactAudioCopy v0.99pb4
#
DISCID=ad0d140d
DTITLE=Various Artist - Salsa CD3_DanceMeltdown!, Beginner's Guide To
DYEAR=2008
DGENRE=Salsa
TTITLE0=Salseros Unidos - Lefty Perez
TTITLE1=Prejuicio - Gambino Pampini
TTITLE2=Gozando El Guaguanco - Alfredo Chocolate Diaz
TTITLE3=Nunca Contigo - Eddie Palmieri
TTITLE4=Tocala - Fajardo Y Sus Estrellas Del 75
TTITLE5=Professor - Yambu
TTITLE6=La Cachiporra - Joe Arroyo
TTITLE7=Negro Candela - Fruko Y Sus Tesos
TTITLE8=Avance - Son Primero
TTITLE9=Salsa Donde Estabas - Victor Hugo
TTITLE10=Ven A Bailar - Orquesta Broadway
TTITLE11=Baila Con Swing Sabroso - Ray Rodriguez
TTITLE12=Vete - Anthony Leon
EXTD=YEAR: 2008
EXTT0=
EXTT1=
EXTT2=
EXTT3=
EXTT4=
EXTT5=
EXTT6=
EXTT7=
EXTT8=
EXTT9=
EXTT10=
EXTT11=
EXTT12=
PLAYORDER=
